<svg xmlns="http://www.w3.org/2000/svg" xmlns:xlink="http://www.w3.org/1999/xlink" width="200" height="200" class="icon" p-id="2703" t="1668247216621" version="1.1" viewBox="0 0 1024 1024"><path fill="#EDEDEE" d="M512 1024c141.386 0 256-114.614 256-256s-114.614-256-256-256-256-114.614-256-256S370.614 0 512 0c282.77 0 512 229.23 512 512S794.77 1024 512 1024z" p-id="2704"/><path fill="#504B5A" d="M512 0c-141.386 0-256 114.614-256 256s114.614 256 256 256 256 114.614 256 256-114.614 256-256 256C229.23 1024 0 794.77 0 512S229.23 0 512 0z" p-id="2705"/><path fill="#EDEDEE" d="M512 768m-91.428 0a91.428 91.428 0 1 0 182.856 0 91.428 91.428 0 1 0-182.856 0Z" p-id="2706"/><path fill="#504B5A" d="M512 256m-91.428 0a91.428 91.428 0 1 0 182.856 0 91.428 91.428 0 1 0-182.856 0Z" p-id="2707"/></svg>